<mxfile host="app.diagrams.net" modified="2020-12-04T15:52:59.073Z" agent="5.0 (Windows NT 10.0; Win64; x64) AppleWebKit/537.36 (KHTML, like Gecko) Chrome/86.0.4240.198 Safari/537.36" etag="aj9zFjo_b5Np94lVPkC7" version="13.10.9" type="github">
  <diagram id="R2lEEEUBdFMjLlhIrx00" name="Page-1">
    <mxGraphModel dx="1483" dy="829" grid="1" gridSize="10" guides="1" tooltips="1" connect="1" arrows="1" fold="1" page="1" pageScale="1" pageWidth="1169" pageHeight="827" math="0" shadow="0" extFonts="Permanent Marker^https://fonts.googleapis.com/css?family=Permanent+Marker">
      <root>
        <mxCell id="0" />
        <mxCell id="1" parent="0" />
        <mxCell id="C-vyLk0tnHw3VtMMgP7b-1" value="" style="edgeStyle=entityRelationEdgeStyle;endArrow=ERoneToMany;startArrow=ERone;endFill=0;startFill=0;" parent="1" source="C-vyLk0tnHw3VtMMgP7b-24" target="C-vyLk0tnHw3VtMMgP7b-6" edge="1">
          <mxGeometry width="100" height="100" relative="1" as="geometry">
            <mxPoint x="690" y="760" as="sourcePoint" />
            <mxPoint x="790" y="660" as="targetPoint" />
          </mxGeometry>
        </mxCell>
        <mxCell id="C-vyLk0tnHw3VtMMgP7b-2" value="Basket" style="shape=table;startSize=30;container=1;collapsible=1;childLayout=tableLayout;fixedRows=1;rowLines=0;fontStyle=1;align=center;resizeLast=1;" parent="1" vertex="1">
          <mxGeometry x="860" y="350" width="250" height="90" as="geometry" />
        </mxCell>
        <mxCell id="C-vyLk0tnHw3VtMMgP7b-3" value="" style="shape=partialRectangle;collapsible=0;dropTarget=0;pointerEvents=0;fillColor=none;points=[[0,0.5],[1,0.5]];portConstraint=eastwest;top=0;left=0;right=0;bottom=1;" parent="C-vyLk0tnHw3VtMMgP7b-2" vertex="1">
          <mxGeometry y="30" width="250" height="30" as="geometry" />
        </mxCell>
        <mxCell id="C-vyLk0tnHw3VtMMgP7b-4" value="PK" style="shape=partialRectangle;overflow=hidden;connectable=0;fillColor=none;top=0;left=0;bottom=0;right=0;fontStyle=1;" parent="C-vyLk0tnHw3VtMMgP7b-3" vertex="1">
          <mxGeometry width="30" height="30" as="geometry" />
        </mxCell>
        <mxCell id="C-vyLk0tnHw3VtMMgP7b-5" value="BasketID INT" style="shape=partialRectangle;overflow=hidden;connectable=0;fillColor=none;top=0;left=0;bottom=0;right=0;align=left;spacingLeft=6;fontStyle=5;" parent="C-vyLk0tnHw3VtMMgP7b-3" vertex="1">
          <mxGeometry x="30" width="220" height="30" as="geometry" />
        </mxCell>
        <mxCell id="C-vyLk0tnHw3VtMMgP7b-6" value="" style="shape=partialRectangle;collapsible=0;dropTarget=0;pointerEvents=0;fillColor=none;points=[[0,0.5],[1,0.5]];portConstraint=eastwest;top=0;left=0;right=0;bottom=0;" parent="C-vyLk0tnHw3VtMMgP7b-2" vertex="1">
          <mxGeometry y="60" width="250" height="30" as="geometry" />
        </mxCell>
        <mxCell id="C-vyLk0tnHw3VtMMgP7b-7" value="FK" style="shape=partialRectangle;overflow=hidden;connectable=0;fillColor=none;top=0;left=0;bottom=0;right=0;" parent="C-vyLk0tnHw3VtMMgP7b-6" vertex="1">
          <mxGeometry width="30" height="30" as="geometry" />
        </mxCell>
        <mxCell id="C-vyLk0tnHw3VtMMgP7b-8" value="CustomerEmail VARCHAR(50)" style="shape=partialRectangle;overflow=hidden;connectable=0;fillColor=none;top=0;left=0;bottom=0;right=0;align=left;spacingLeft=6;fontStyle=0" parent="C-vyLk0tnHw3VtMMgP7b-6" vertex="1">
          <mxGeometry x="30" width="220" height="30" as="geometry" />
        </mxCell>
        <mxCell id="C-vyLk0tnHw3VtMMgP7b-23" value="Customer" style="shape=table;startSize=30;container=1;collapsible=1;childLayout=tableLayout;fixedRows=1;rowLines=0;fontStyle=1;align=center;resizeLast=1;" parent="1" vertex="1">
          <mxGeometry x="830" y="50" width="280" height="150" as="geometry" />
        </mxCell>
        <mxCell id="C-vyLk0tnHw3VtMMgP7b-24" value="" style="shape=partialRectangle;collapsible=0;dropTarget=0;pointerEvents=0;fillColor=none;points=[[0,0.5],[1,0.5]];portConstraint=eastwest;top=0;left=0;right=0;bottom=1;" parent="C-vyLk0tnHw3VtMMgP7b-23" vertex="1">
          <mxGeometry y="30" width="280" height="30" as="geometry" />
        </mxCell>
        <mxCell id="C-vyLk0tnHw3VtMMgP7b-25" value="PK" style="shape=partialRectangle;overflow=hidden;connectable=0;fillColor=none;top=0;left=0;bottom=0;right=0;fontStyle=1;" parent="C-vyLk0tnHw3VtMMgP7b-24" vertex="1">
          <mxGeometry width="30" height="30" as="geometry" />
        </mxCell>
        <mxCell id="C-vyLk0tnHw3VtMMgP7b-26" value="CustomerEmail VARCHAR(50)" style="shape=partialRectangle;overflow=hidden;connectable=0;fillColor=none;top=0;left=0;bottom=0;right=0;align=left;spacingLeft=6;fontStyle=5;" parent="C-vyLk0tnHw3VtMMgP7b-24" vertex="1">
          <mxGeometry x="30" width="250" height="30" as="geometry" />
        </mxCell>
        <mxCell id="C-vyLk0tnHw3VtMMgP7b-27" value="" style="shape=partialRectangle;collapsible=0;dropTarget=0;pointerEvents=0;fillColor=none;points=[[0,0.5],[1,0.5]];portConstraint=eastwest;top=0;left=0;right=0;bottom=0;" parent="C-vyLk0tnHw3VtMMgP7b-23" vertex="1">
          <mxGeometry y="60" width="280" height="30" as="geometry" />
        </mxCell>
        <mxCell id="C-vyLk0tnHw3VtMMgP7b-28" value="" style="shape=partialRectangle;overflow=hidden;connectable=0;fillColor=none;top=0;left=0;bottom=0;right=0;" parent="C-vyLk0tnHw3VtMMgP7b-27" vertex="1">
          <mxGeometry width="30" height="30" as="geometry" />
        </mxCell>
        <mxCell id="C-vyLk0tnHw3VtMMgP7b-29" value="CustomerName VARCHAR(50) NOT NULL" style="shape=partialRectangle;overflow=hidden;connectable=0;fillColor=none;top=0;left=0;bottom=0;right=0;align=left;spacingLeft=6;" parent="C-vyLk0tnHw3VtMMgP7b-27" vertex="1">
          <mxGeometry x="30" width="250" height="30" as="geometry" />
        </mxCell>
        <mxCell id="-KEpG9UTArT3fklVy3_w-3" value="" style="shape=partialRectangle;collapsible=0;dropTarget=0;pointerEvents=0;fillColor=none;points=[[0,0.5],[1,0.5]];portConstraint=eastwest;top=0;left=0;right=0;bottom=0;" vertex="1" parent="1">
          <mxGeometry x="830" y="140" width="280" height="30" as="geometry" />
        </mxCell>
        <mxCell id="-KEpG9UTArT3fklVy3_w-4" value="" style="shape=partialRectangle;overflow=hidden;connectable=0;fillColor=none;top=0;left=0;bottom=0;right=0;" vertex="1" parent="-KEpG9UTArT3fklVy3_w-3">
          <mxGeometry width="30" height="30" as="geometry" />
        </mxCell>
        <mxCell id="-KEpG9UTArT3fklVy3_w-5" value="CustomerPhone VARCHAR(50) NOT NULL" style="shape=partialRectangle;overflow=hidden;connectable=0;fillColor=none;top=0;left=0;bottom=0;right=0;align=left;spacingLeft=6;" vertex="1" parent="-KEpG9UTArT3fklVy3_w-3">
          <mxGeometry x="30" width="250" height="30" as="geometry" />
        </mxCell>
        <mxCell id="-KEpG9UTArT3fklVy3_w-6" value="" style="shape=partialRectangle;collapsible=0;dropTarget=0;pointerEvents=0;fillColor=none;points=[[0,0.5],[1,0.5]];portConstraint=eastwest;top=0;left=0;right=0;bottom=0;" vertex="1" parent="1">
          <mxGeometry x="830" y="170" width="280" height="30" as="geometry" />
        </mxCell>
        <mxCell id="-KEpG9UTArT3fklVy3_w-7" value="" style="shape=partialRectangle;overflow=hidden;connectable=0;fillColor=none;top=0;left=0;bottom=0;right=0;" vertex="1" parent="-KEpG9UTArT3fklVy3_w-6">
          <mxGeometry width="30" height="30" as="geometry" />
        </mxCell>
        <mxCell id="-KEpG9UTArT3fklVy3_w-8" value="CustomerAddress VARCHAR(50) NOT NULL" style="shape=partialRectangle;overflow=hidden;connectable=0;fillColor=none;top=0;left=0;bottom=0;right=0;align=left;spacingLeft=6;" vertex="1" parent="-KEpG9UTArT3fklVy3_w-6">
          <mxGeometry x="30" width="250" height="30" as="geometry" />
        </mxCell>
        <mxCell id="-KEpG9UTArT3fklVy3_w-24" value="" style="edgeStyle=entityRelationEdgeStyle;endArrow=ERoneToMany;startArrow=ERoneToMany;endFill=0;startFill=0;entryX=0;entryY=0;entryDx=0;entryDy=0;entryPerimeter=0;" edge="1" parent="1" target="C-vyLk0tnHw3VtMMgP7b-6">
          <mxGeometry width="100" height="100" relative="1" as="geometry">
            <mxPoint x="790" y="410" as="sourcePoint" />
            <mxPoint x="790" y="583" as="targetPoint" />
          </mxGeometry>
        </mxCell>
        <mxCell id="-KEpG9UTArT3fklVy3_w-26" value="" style="group;" vertex="1" connectable="0" parent="1">
          <mxGeometry x="589" y="340" width="210" height="110" as="geometry" />
        </mxCell>
        <mxCell id="-KEpG9UTArT3fklVy3_w-22" value="FK" style="shape=partialRectangle;overflow=hidden;connectable=0;fillColor=none;top=0;left=0;bottom=0;right=0;" vertex="1" parent="-KEpG9UTArT3fklVy3_w-26">
          <mxGeometry y="80" width="25.2" height="30" as="geometry" />
        </mxCell>
        <mxCell id="-KEpG9UTArT3fklVy3_w-25" value="" style="group" vertex="1" connectable="0" parent="-KEpG9UTArT3fklVy3_w-26">
          <mxGeometry width="210" height="110" as="geometry" />
        </mxCell>
        <mxCell id="-KEpG9UTArT3fklVy3_w-13" value="ShoppingBaskets_have_books" style="shape=table;startSize=30;container=1;collapsible=1;childLayout=tableLayout;fixedRows=1;rowLines=0;fontStyle=1;align=center;resizeLast=1;" vertex="1" parent="-KEpG9UTArT3fklVy3_w-25">
          <mxGeometry width="201.6" height="110" as="geometry" />
        </mxCell>
        <mxCell id="-KEpG9UTArT3fklVy3_w-17" value="" style="shape=partialRectangle;collapsible=0;dropTarget=0;pointerEvents=0;fillColor=none;points=[[0,0.5],[1,0.5]];portConstraint=eastwest;top=0;left=0;right=0;bottom=0;" vertex="1" parent="-KEpG9UTArT3fklVy3_w-13">
          <mxGeometry y="30" width="201.6" height="30" as="geometry" />
        </mxCell>
        <mxCell id="-KEpG9UTArT3fklVy3_w-18" value="" style="shape=partialRectangle;overflow=hidden;connectable=0;fillColor=none;top=0;left=0;bottom=0;right=0;" vertex="1" parent="-KEpG9UTArT3fklVy3_w-17">
          <mxGeometry width="30" height="30" as="geometry" />
        </mxCell>
        <mxCell id="-KEpG9UTArT3fklVy3_w-19" value="Count INT" style="shape=partialRectangle;overflow=hidden;connectable=0;fillColor=none;top=0;left=0;bottom=0;right=0;align=left;spacingLeft=6;fontStyle=0" vertex="1" parent="-KEpG9UTArT3fklVy3_w-17">
          <mxGeometry x="30" width="171.6" height="30" as="geometry" />
        </mxCell>
        <mxCell id="-KEpG9UTArT3fklVy3_w-20" value="FK" style="shape=partialRectangle;overflow=hidden;connectable=0;fillColor=none;top=0;left=0;bottom=0;right=0;" vertex="1" parent="-KEpG9UTArT3fklVy3_w-25">
          <mxGeometry y="55" width="25.2" height="30" as="geometry" />
        </mxCell>
        <mxCell id="-KEpG9UTArT3fklVy3_w-21" value="CustomerEmail VARCHAR(50)" style="shape=partialRectangle;overflow=hidden;connectable=0;fillColor=none;top=0;left=0;bottom=0;right=0;align=left;spacingLeft=6;fontStyle=0" vertex="1" parent="-KEpG9UTArT3fklVy3_w-25">
          <mxGeometry x="25.2" y="55" width="184.79999999999998" height="30" as="geometry" />
        </mxCell>
        <mxCell id="-KEpG9UTArT3fklVy3_w-23" value="ISBN VARCHAR(50)" style="shape=partialRectangle;overflow=hidden;connectable=0;fillColor=none;top=0;left=0;bottom=0;right=0;align=left;spacingLeft=6;fontStyle=0" vertex="1" parent="-KEpG9UTArT3fklVy3_w-25">
          <mxGeometry x="25.2" y="80" width="184.79999999999998" height="30" as="geometry" />
        </mxCell>
        <mxCell id="-KEpG9UTArT3fklVy3_w-153" style="edgeStyle=orthogonalEdgeStyle;rounded=0;orthogonalLoop=1;jettySize=auto;html=1;entryX=0.5;entryY=0;entryDx=0;entryDy=0;startArrow=ERoneToMany;startFill=0;endArrow=ERoneToMany;endFill=0;" edge="1" parent="1" source="-KEpG9UTArT3fklVy3_w-37" target="-KEpG9UTArT3fklVy3_w-127">
          <mxGeometry relative="1" as="geometry" />
        </mxCell>
        <mxCell id="-KEpG9UTArT3fklVy3_w-37" value="Book" style="shape=table;startSize=30;container=1;collapsible=1;childLayout=tableLayout;fixedRows=1;rowLines=0;fontStyle=1;align=center;resizeLast=1;" vertex="1" parent="1">
          <mxGeometry x="320" y="290" width="220" height="210" as="geometry" />
        </mxCell>
        <mxCell id="-KEpG9UTArT3fklVy3_w-38" value="" style="shape=partialRectangle;collapsible=0;dropTarget=0;pointerEvents=0;fillColor=none;points=[[0,0.5],[1,0.5]];portConstraint=eastwest;top=0;left=0;right=0;bottom=1;" vertex="1" parent="-KEpG9UTArT3fklVy3_w-37">
          <mxGeometry y="30" width="220" height="30" as="geometry" />
        </mxCell>
        <mxCell id="-KEpG9UTArT3fklVy3_w-39" value="PK" style="shape=partialRectangle;overflow=hidden;connectable=0;fillColor=none;top=0;left=0;bottom=0;right=0;fontStyle=1;" vertex="1" parent="-KEpG9UTArT3fklVy3_w-38">
          <mxGeometry width="30" height="30" as="geometry" />
        </mxCell>
        <mxCell id="-KEpG9UTArT3fklVy3_w-40" value="ISBN VARCHAR(50) " style="shape=partialRectangle;overflow=hidden;connectable=0;fillColor=none;top=0;left=0;bottom=0;right=0;align=left;spacingLeft=6;fontStyle=5;" vertex="1" parent="-KEpG9UTArT3fklVy3_w-38">
          <mxGeometry x="30" width="190" height="30" as="geometry" />
        </mxCell>
        <mxCell id="-KEpG9UTArT3fklVy3_w-41" value="" style="shape=partialRectangle;collapsible=0;dropTarget=0;pointerEvents=0;fillColor=none;points=[[0,0.5],[1,0.5]];portConstraint=eastwest;top=0;left=0;right=0;bottom=0;" vertex="1" parent="-KEpG9UTArT3fklVy3_w-37">
          <mxGeometry y="60" width="220" height="30" as="geometry" />
        </mxCell>
        <mxCell id="-KEpG9UTArT3fklVy3_w-42" value="" style="shape=partialRectangle;overflow=hidden;connectable=0;fillColor=none;top=0;left=0;bottom=0;right=0;" vertex="1" parent="-KEpG9UTArT3fklVy3_w-41">
          <mxGeometry width="30" height="30" as="geometry" />
        </mxCell>
        <mxCell id="-KEpG9UTArT3fklVy3_w-43" value="Year DATE NOT NULL" style="shape=partialRectangle;overflow=hidden;connectable=0;fillColor=none;top=0;left=0;bottom=0;right=0;align=left;spacingLeft=6;fontStyle=0" vertex="1" parent="-KEpG9UTArT3fklVy3_w-41">
          <mxGeometry x="30" width="190" height="30" as="geometry" />
        </mxCell>
        <mxCell id="-KEpG9UTArT3fklVy3_w-51" value="" style="shape=partialRectangle;collapsible=0;dropTarget=0;pointerEvents=0;fillColor=none;points=[[0,0.5],[1,0.5]];portConstraint=eastwest;top=0;left=0;right=0;bottom=0;" vertex="1" parent="-KEpG9UTArT3fklVy3_w-37">
          <mxGeometry y="90" width="220" height="30" as="geometry" />
        </mxCell>
        <mxCell id="-KEpG9UTArT3fklVy3_w-52" value="" style="shape=partialRectangle;overflow=hidden;connectable=0;fillColor=none;top=0;left=0;bottom=0;right=0;" vertex="1" parent="-KEpG9UTArT3fklVy3_w-51">
          <mxGeometry width="30" height="30" as="geometry" />
        </mxCell>
        <mxCell id="-KEpG9UTArT3fklVy3_w-53" value="Title VARCHAR(50) NOT NULL" style="shape=partialRectangle;overflow=hidden;connectable=0;fillColor=none;top=0;left=0;bottom=0;right=0;align=left;spacingLeft=6;fontStyle=0" vertex="1" parent="-KEpG9UTArT3fklVy3_w-51">
          <mxGeometry x="30" width="190" height="30" as="geometry" />
        </mxCell>
        <mxCell id="-KEpG9UTArT3fklVy3_w-61" value="" style="shape=partialRectangle;collapsible=0;dropTarget=0;pointerEvents=0;fillColor=none;points=[[0,0.5],[1,0.5]];portConstraint=eastwest;top=0;left=0;right=0;bottom=0;" vertex="1" parent="-KEpG9UTArT3fklVy3_w-37">
          <mxGeometry y="120" width="220" height="30" as="geometry" />
        </mxCell>
        <mxCell id="-KEpG9UTArT3fklVy3_w-62" value="" style="shape=partialRectangle;overflow=hidden;connectable=0;fillColor=none;top=0;left=0;bottom=0;right=0;" vertex="1" parent="-KEpG9UTArT3fklVy3_w-61">
          <mxGeometry width="30" height="30" as="geometry" />
        </mxCell>
        <mxCell id="-KEpG9UTArT3fklVy3_w-63" value="Price INT NOT NULL" style="shape=partialRectangle;overflow=hidden;connectable=0;fillColor=none;top=0;left=0;bottom=0;right=0;align=left;spacingLeft=6;fontStyle=0" vertex="1" parent="-KEpG9UTArT3fklVy3_w-61">
          <mxGeometry x="30" width="190" height="30" as="geometry" />
        </mxCell>
        <mxCell id="-KEpG9UTArT3fklVy3_w-65" value="" style="shape=partialRectangle;collapsible=0;dropTarget=0;pointerEvents=0;fillColor=none;points=[[0,0.5],[1,0.5]];portConstraint=eastwest;top=0;left=0;right=0;bottom=0;" vertex="1" parent="-KEpG9UTArT3fklVy3_w-37">
          <mxGeometry y="150" width="220" height="30" as="geometry" />
        </mxCell>
        <mxCell id="-KEpG9UTArT3fklVy3_w-66" value="FK" style="shape=partialRectangle;overflow=hidden;connectable=0;fillColor=none;top=0;left=0;bottom=0;right=0;" vertex="1" parent="-KEpG9UTArT3fklVy3_w-65">
          <mxGeometry width="30" height="30" as="geometry" />
        </mxCell>
        <mxCell id="-KEpG9UTArT3fklVy3_w-67" value="PublisherID INT " style="shape=partialRectangle;overflow=hidden;connectable=0;fillColor=none;top=0;left=0;bottom=0;right=0;align=left;spacingLeft=6;fontStyle=0" vertex="1" parent="-KEpG9UTArT3fklVy3_w-65">
          <mxGeometry x="30" width="190" height="30" as="geometry" />
        </mxCell>
        <mxCell id="-KEpG9UTArT3fklVy3_w-86" style="shape=partialRectangle;collapsible=0;dropTarget=0;pointerEvents=0;fillColor=none;points=[[0,0.5],[1,0.5]];portConstraint=eastwest;top=0;left=0;right=0;bottom=0;" vertex="1" parent="-KEpG9UTArT3fklVy3_w-37">
          <mxGeometry y="180" width="220" height="30" as="geometry" />
        </mxCell>
        <mxCell id="-KEpG9UTArT3fklVy3_w-87" value="FK" style="shape=partialRectangle;overflow=hidden;connectable=0;fillColor=none;top=0;left=0;bottom=0;right=0;" vertex="1" parent="-KEpG9UTArT3fklVy3_w-86">
          <mxGeometry width="30" height="30" as="geometry" />
        </mxCell>
        <mxCell id="-KEpG9UTArT3fklVy3_w-88" value="AuthorID INT " style="shape=partialRectangle;overflow=hidden;connectable=0;fillColor=none;top=0;left=0;bottom=0;right=0;align=left;spacingLeft=6;fontStyle=0" vertex="1" parent="-KEpG9UTArT3fklVy3_w-86">
          <mxGeometry x="30" width="190" height="30" as="geometry" />
        </mxCell>
        <mxCell id="-KEpG9UTArT3fklVy3_w-92" style="edgeStyle=orthogonalEdgeStyle;rounded=0;orthogonalLoop=1;jettySize=auto;html=1;exitX=1;exitY=0.5;exitDx=0;exitDy=0;startArrow=ERoneToMany;startFill=0;endArrow=ERoneToMany;endFill=0;" edge="1" parent="1" source="-KEpG9UTArT3fklVy3_w-51">
          <mxGeometry relative="1" as="geometry">
            <mxPoint x="590" y="395.1724137931035" as="targetPoint" />
          </mxGeometry>
        </mxCell>
        <mxCell id="-KEpG9UTArT3fklVy3_w-112" style="edgeStyle=orthogonalEdgeStyle;rounded=0;orthogonalLoop=1;jettySize=auto;html=1;exitX=0.5;exitY=1;exitDx=0;exitDy=0;entryX=0.5;entryY=0;entryDx=0;entryDy=0;startArrow=ERone;startFill=0;endArrow=ERoneToMany;endFill=0;" edge="1" parent="1" source="-KEpG9UTArT3fklVy3_w-93" target="-KEpG9UTArT3fklVy3_w-37">
          <mxGeometry relative="1" as="geometry" />
        </mxCell>
        <mxCell id="-KEpG9UTArT3fklVy3_w-93" value="Publisher" style="shape=table;startSize=30;container=1;collapsible=1;childLayout=tableLayout;fixedRows=1;rowLines=0;fontStyle=1;align=center;resizeLast=1;strokeColor=#000000;" vertex="1" parent="1">
          <mxGeometry x="320" y="45" width="220" height="185" as="geometry" />
        </mxCell>
        <mxCell id="-KEpG9UTArT3fklVy3_w-94" value="" style="shape=partialRectangle;collapsible=0;dropTarget=0;pointerEvents=0;fillColor=none;top=0;left=0;bottom=1;right=0;points=[[0,0.5],[1,0.5]];portConstraint=eastwest;" vertex="1" parent="-KEpG9UTArT3fklVy3_w-93">
          <mxGeometry y="30" width="220" height="30" as="geometry" />
        </mxCell>
        <mxCell id="-KEpG9UTArT3fklVy3_w-95" value="PK" style="shape=partialRectangle;connectable=0;fillColor=none;top=0;left=0;bottom=0;right=0;fontStyle=1;overflow=hidden;" vertex="1" parent="-KEpG9UTArT3fklVy3_w-94">
          <mxGeometry width="30" height="30" as="geometry" />
        </mxCell>
        <mxCell id="-KEpG9UTArT3fklVy3_w-96" value="PublisherID INT " style="shape=partialRectangle;connectable=0;fillColor=none;top=0;left=0;bottom=0;right=0;align=left;spacingLeft=6;fontStyle=5;overflow=hidden;" vertex="1" parent="-KEpG9UTArT3fklVy3_w-94">
          <mxGeometry x="30" width="190" height="30" as="geometry" />
        </mxCell>
        <mxCell id="-KEpG9UTArT3fklVy3_w-97" value="" style="shape=partialRectangle;collapsible=0;dropTarget=0;pointerEvents=0;fillColor=none;top=0;left=0;bottom=0;right=0;points=[[0,0.5],[1,0.5]];portConstraint=eastwest;" vertex="1" parent="-KEpG9UTArT3fklVy3_w-93">
          <mxGeometry y="60" width="220" height="30" as="geometry" />
        </mxCell>
        <mxCell id="-KEpG9UTArT3fklVy3_w-98" value="" style="shape=partialRectangle;connectable=0;fillColor=none;top=0;left=0;bottom=0;right=0;editable=1;overflow=hidden;" vertex="1" parent="-KEpG9UTArT3fklVy3_w-97">
          <mxGeometry width="30" height="30" as="geometry" />
        </mxCell>
        <mxCell id="-KEpG9UTArT3fklVy3_w-99" value="PublisherName VARCHAR(50)" style="shape=partialRectangle;connectable=0;fillColor=none;top=0;left=0;bottom=0;right=0;align=left;spacingLeft=6;overflow=hidden;" vertex="1" parent="-KEpG9UTArT3fklVy3_w-97">
          <mxGeometry x="30" width="190" height="30" as="geometry" />
        </mxCell>
        <mxCell id="-KEpG9UTArT3fklVy3_w-100" value="" style="shape=partialRectangle;collapsible=0;dropTarget=0;pointerEvents=0;fillColor=none;top=0;left=0;bottom=0;right=0;points=[[0,0.5],[1,0.5]];portConstraint=eastwest;" vertex="1" parent="-KEpG9UTArT3fklVy3_w-93">
          <mxGeometry y="90" width="220" height="30" as="geometry" />
        </mxCell>
        <mxCell id="-KEpG9UTArT3fklVy3_w-101" value="" style="shape=partialRectangle;connectable=0;fillColor=none;top=0;left=0;bottom=0;right=0;editable=1;overflow=hidden;" vertex="1" parent="-KEpG9UTArT3fklVy3_w-100">
          <mxGeometry width="30" height="30" as="geometry" />
        </mxCell>
        <mxCell id="-KEpG9UTArT3fklVy3_w-102" value="PublisherPhone INT" style="shape=partialRectangle;connectable=0;fillColor=none;top=0;left=0;bottom=0;right=0;align=left;spacingLeft=6;overflow=hidden;" vertex="1" parent="-KEpG9UTArT3fklVy3_w-100">
          <mxGeometry x="30" width="190" height="30" as="geometry" />
        </mxCell>
        <mxCell id="-KEpG9UTArT3fklVy3_w-103" value="" style="shape=partialRectangle;collapsible=0;dropTarget=0;pointerEvents=0;fillColor=none;top=0;left=0;bottom=0;right=0;points=[[0,0.5],[1,0.5]];portConstraint=eastwest;" vertex="1" parent="-KEpG9UTArT3fklVy3_w-93">
          <mxGeometry y="120" width="220" height="30" as="geometry" />
        </mxCell>
        <mxCell id="-KEpG9UTArT3fklVy3_w-104" value="" style="shape=partialRectangle;connectable=0;fillColor=none;top=0;left=0;bottom=0;right=0;editable=1;overflow=hidden;" vertex="1" parent="-KEpG9UTArT3fklVy3_w-103">
          <mxGeometry width="30" height="30" as="geometry" />
        </mxCell>
        <mxCell id="-KEpG9UTArT3fklVy3_w-105" value="PublisherURL VARCHAR(50)" style="shape=partialRectangle;connectable=0;fillColor=none;top=0;left=0;bottom=0;right=0;align=left;spacingLeft=6;overflow=hidden;" vertex="1" parent="-KEpG9UTArT3fklVy3_w-103">
          <mxGeometry x="30" width="190" height="30" as="geometry" />
        </mxCell>
        <mxCell id="-KEpG9UTArT3fklVy3_w-106" style="shape=partialRectangle;collapsible=0;dropTarget=0;pointerEvents=0;fillColor=none;top=0;left=0;bottom=0;right=0;points=[[0,0.5],[1,0.5]];portConstraint=eastwest;" vertex="1" parent="-KEpG9UTArT3fklVy3_w-93">
          <mxGeometry y="150" width="220" height="30" as="geometry" />
        </mxCell>
        <mxCell id="-KEpG9UTArT3fklVy3_w-107" style="shape=partialRectangle;connectable=0;fillColor=none;top=0;left=0;bottom=0;right=0;editable=1;overflow=hidden;" vertex="1" parent="-KEpG9UTArT3fklVy3_w-106">
          <mxGeometry width="30" height="30" as="geometry" />
        </mxCell>
        <mxCell id="-KEpG9UTArT3fklVy3_w-108" value="PublisherAddress VARCHAR(50)" style="shape=partialRectangle;connectable=0;fillColor=none;top=0;left=0;bottom=0;right=0;align=left;spacingLeft=6;overflow=hidden;" vertex="1" parent="-KEpG9UTArT3fklVy3_w-106">
          <mxGeometry x="30" width="190" height="30" as="geometry" />
        </mxCell>
        <mxCell id="-KEpG9UTArT3fklVy3_w-126" style="edgeStyle=orthogonalEdgeStyle;rounded=0;orthogonalLoop=1;jettySize=auto;html=1;exitX=1;exitY=0.5;exitDx=0;exitDy=0;entryX=-0.004;entryY=0.122;entryDx=0;entryDy=0;entryPerimeter=0;startArrow=ERone;startFill=0;endArrow=ERoneToMany;endFill=0;" edge="1" parent="1" source="-KEpG9UTArT3fklVy3_w-113" target="-KEpG9UTArT3fklVy3_w-61">
          <mxGeometry relative="1" as="geometry" />
        </mxCell>
        <mxCell id="-KEpG9UTArT3fklVy3_w-113" value="Author" style="shape=table;startSize=30;container=1;collapsible=1;childLayout=tableLayout;fixedRows=1;rowLines=0;fontStyle=1;align=center;resizeLast=1;strokeColor=#000000;" vertex="1" parent="1">
          <mxGeometry x="20" y="350" width="210" height="120" as="geometry" />
        </mxCell>
        <mxCell id="-KEpG9UTArT3fklVy3_w-114" value="" style="shape=partialRectangle;collapsible=0;dropTarget=0;pointerEvents=0;fillColor=none;top=0;left=0;bottom=1;right=0;points=[[0,0.5],[1,0.5]];portConstraint=eastwest;" vertex="1" parent="-KEpG9UTArT3fklVy3_w-113">
          <mxGeometry y="30" width="210" height="30" as="geometry" />
        </mxCell>
        <mxCell id="-KEpG9UTArT3fklVy3_w-115" value="PK" style="shape=partialRectangle;connectable=0;fillColor=none;top=0;left=0;bottom=0;right=0;fontStyle=1;overflow=hidden;" vertex="1" parent="-KEpG9UTArT3fklVy3_w-114">
          <mxGeometry width="30" height="30" as="geometry" />
        </mxCell>
        <mxCell id="-KEpG9UTArT3fklVy3_w-116" value="AuthorID INT " style="shape=partialRectangle;connectable=0;fillColor=none;top=0;left=0;bottom=0;right=0;align=left;spacingLeft=6;fontStyle=5;overflow=hidden;" vertex="1" parent="-KEpG9UTArT3fklVy3_w-114">
          <mxGeometry x="30" width="180" height="30" as="geometry" />
        </mxCell>
        <mxCell id="-KEpG9UTArT3fklVy3_w-117" value="" style="shape=partialRectangle;collapsible=0;dropTarget=0;pointerEvents=0;fillColor=none;top=0;left=0;bottom=0;right=0;points=[[0,0.5],[1,0.5]];portConstraint=eastwest;" vertex="1" parent="-KEpG9UTArT3fklVy3_w-113">
          <mxGeometry y="60" width="210" height="30" as="geometry" />
        </mxCell>
        <mxCell id="-KEpG9UTArT3fklVy3_w-118" value="" style="shape=partialRectangle;connectable=0;fillColor=none;top=0;left=0;bottom=0;right=0;editable=1;overflow=hidden;" vertex="1" parent="-KEpG9UTArT3fklVy3_w-117">
          <mxGeometry width="30" height="30" as="geometry" />
        </mxCell>
        <mxCell id="-KEpG9UTArT3fklVy3_w-119" value="AuthorName VARCHAR(50)" style="shape=partialRectangle;connectable=0;fillColor=none;top=0;left=0;bottom=0;right=0;align=left;spacingLeft=6;overflow=hidden;" vertex="1" parent="-KEpG9UTArT3fklVy3_w-117">
          <mxGeometry x="30" width="180" height="30" as="geometry" />
        </mxCell>
        <mxCell id="-KEpG9UTArT3fklVy3_w-120" value="" style="shape=partialRectangle;collapsible=0;dropTarget=0;pointerEvents=0;fillColor=none;top=0;left=0;bottom=0;right=0;points=[[0,0.5],[1,0.5]];portConstraint=eastwest;" vertex="1" parent="-KEpG9UTArT3fklVy3_w-113">
          <mxGeometry y="90" width="210" height="30" as="geometry" />
        </mxCell>
        <mxCell id="-KEpG9UTArT3fklVy3_w-121" value="" style="shape=partialRectangle;connectable=0;fillColor=none;top=0;left=0;bottom=0;right=0;editable=1;overflow=hidden;" vertex="1" parent="-KEpG9UTArT3fklVy3_w-120">
          <mxGeometry width="30" height="30" as="geometry" />
        </mxCell>
        <mxCell id="-KEpG9UTArT3fklVy3_w-122" value="AuthorAddress VARCHAR(50)" style="shape=partialRectangle;connectable=0;fillColor=none;top=0;left=0;bottom=0;right=0;align=left;spacingLeft=6;overflow=hidden;" vertex="1" parent="-KEpG9UTArT3fklVy3_w-120">
          <mxGeometry x="30" width="180" height="30" as="geometry" />
        </mxCell>
        <mxCell id="-KEpG9UTArT3fklVy3_w-127" value="Warehouse_has_books" style="shape=table;startSize=30;container=1;collapsible=1;childLayout=tableLayout;fixedRows=1;rowLines=0;fontStyle=1;align=center;resizeLast=1;strokeColor=#000000;" vertex="1" parent="1">
          <mxGeometry x="340" y="570" width="180" height="130" as="geometry" />
        </mxCell>
        <mxCell id="-KEpG9UTArT3fklVy3_w-131" value="" style="shape=partialRectangle;collapsible=0;dropTarget=0;pointerEvents=0;fillColor=none;top=0;left=0;bottom=0;right=0;points=[[0,0.5],[1,0.5]];portConstraint=eastwest;" vertex="1" parent="-KEpG9UTArT3fklVy3_w-127">
          <mxGeometry y="30" width="180" height="30" as="geometry" />
        </mxCell>
        <mxCell id="-KEpG9UTArT3fklVy3_w-132" value="FK" style="shape=partialRectangle;connectable=0;fillColor=none;top=0;left=0;bottom=0;right=0;editable=1;overflow=hidden;" vertex="1" parent="-KEpG9UTArT3fklVy3_w-131">
          <mxGeometry width="30" height="30" as="geometry" />
        </mxCell>
        <mxCell id="-KEpG9UTArT3fklVy3_w-133" value="ISBN INT" style="shape=partialRectangle;connectable=0;fillColor=none;top=0;left=0;bottom=0;right=0;align=left;spacingLeft=6;overflow=hidden;" vertex="1" parent="-KEpG9UTArT3fklVy3_w-131">
          <mxGeometry x="30" width="150" height="30" as="geometry" />
        </mxCell>
        <mxCell id="-KEpG9UTArT3fklVy3_w-134" value="" style="shape=partialRectangle;collapsible=0;dropTarget=0;pointerEvents=0;fillColor=none;top=0;left=0;bottom=0;right=0;points=[[0,0.5],[1,0.5]];portConstraint=eastwest;" vertex="1" parent="-KEpG9UTArT3fklVy3_w-127">
          <mxGeometry y="60" width="180" height="30" as="geometry" />
        </mxCell>
        <mxCell id="-KEpG9UTArT3fklVy3_w-135" value="FK" style="shape=partialRectangle;connectable=0;fillColor=none;top=0;left=0;bottom=0;right=0;editable=1;overflow=hidden;" vertex="1" parent="-KEpG9UTArT3fklVy3_w-134">
          <mxGeometry width="30" height="30" as="geometry" />
        </mxCell>
        <mxCell id="-KEpG9UTArT3fklVy3_w-136" value="WarehouseCode INT" style="shape=partialRectangle;connectable=0;fillColor=none;top=0;left=0;bottom=0;right=0;align=left;spacingLeft=6;overflow=hidden;" vertex="1" parent="-KEpG9UTArT3fklVy3_w-134">
          <mxGeometry x="30" width="150" height="30" as="geometry" />
        </mxCell>
        <mxCell id="-KEpG9UTArT3fklVy3_w-137" value="" style="shape=partialRectangle;collapsible=0;dropTarget=0;pointerEvents=0;fillColor=none;top=0;left=0;bottom=0;right=0;points=[[0,0.5],[1,0.5]];portConstraint=eastwest;" vertex="1" parent="-KEpG9UTArT3fklVy3_w-127">
          <mxGeometry y="90" width="180" height="30" as="geometry" />
        </mxCell>
        <mxCell id="-KEpG9UTArT3fklVy3_w-138" value="" style="shape=partialRectangle;connectable=0;fillColor=none;top=0;left=0;bottom=0;right=0;editable=1;overflow=hidden;" vertex="1" parent="-KEpG9UTArT3fklVy3_w-137">
          <mxGeometry width="30" height="30" as="geometry" />
        </mxCell>
        <mxCell id="-KEpG9UTArT3fklVy3_w-139" value="Count INT" style="shape=partialRectangle;connectable=0;fillColor=none;top=0;left=0;bottom=0;right=0;align=left;spacingLeft=6;overflow=hidden;" vertex="1" parent="-KEpG9UTArT3fklVy3_w-137">
          <mxGeometry x="30" width="150" height="30" as="geometry" />
        </mxCell>
        <mxCell id="-KEpG9UTArT3fklVy3_w-140" value="Warehouse" style="shape=table;startSize=30;container=1;collapsible=1;childLayout=tableLayout;fixedRows=1;rowLines=0;fontStyle=1;align=center;resizeLast=1;strokeColor=#000000;" vertex="1" parent="1">
          <mxGeometry x="610" y="570" width="231" height="130" as="geometry" />
        </mxCell>
        <mxCell id="-KEpG9UTArT3fklVy3_w-141" value="" style="shape=partialRectangle;collapsible=0;dropTarget=0;pointerEvents=0;fillColor=none;top=0;left=0;bottom=1;right=0;points=[[0,0.5],[1,0.5]];portConstraint=eastwest;" vertex="1" parent="-KEpG9UTArT3fklVy3_w-140">
          <mxGeometry y="30" width="231" height="30" as="geometry" />
        </mxCell>
        <mxCell id="-KEpG9UTArT3fklVy3_w-142" value="PK" style="shape=partialRectangle;connectable=0;fillColor=none;top=0;left=0;bottom=0;right=0;fontStyle=1;overflow=hidden;" vertex="1" parent="-KEpG9UTArT3fklVy3_w-141">
          <mxGeometry width="30" height="30" as="geometry" />
        </mxCell>
        <mxCell id="-KEpG9UTArT3fklVy3_w-143" value="WarehouseCode INT" style="shape=partialRectangle;connectable=0;fillColor=none;top=0;left=0;bottom=0;right=0;align=left;spacingLeft=6;fontStyle=5;overflow=hidden;" vertex="1" parent="-KEpG9UTArT3fklVy3_w-141">
          <mxGeometry x="30" width="201" height="30" as="geometry" />
        </mxCell>
        <mxCell id="-KEpG9UTArT3fklVy3_w-144" value="" style="shape=partialRectangle;collapsible=0;dropTarget=0;pointerEvents=0;fillColor=none;top=0;left=0;bottom=0;right=0;points=[[0,0.5],[1,0.5]];portConstraint=eastwest;" vertex="1" parent="-KEpG9UTArT3fklVy3_w-140">
          <mxGeometry y="60" width="231" height="30" as="geometry" />
        </mxCell>
        <mxCell id="-KEpG9UTArT3fklVy3_w-145" value="" style="shape=partialRectangle;connectable=0;fillColor=none;top=0;left=0;bottom=0;right=0;editable=1;overflow=hidden;" vertex="1" parent="-KEpG9UTArT3fklVy3_w-144">
          <mxGeometry width="30" height="30" as="geometry" />
        </mxCell>
        <mxCell id="-KEpG9UTArT3fklVy3_w-146" value="WarehousePhone VARCHAR(50)" style="shape=partialRectangle;connectable=0;fillColor=none;top=0;left=0;bottom=0;right=0;align=left;spacingLeft=6;overflow=hidden;" vertex="1" parent="-KEpG9UTArT3fklVy3_w-144">
          <mxGeometry x="30" width="201" height="30" as="geometry" />
        </mxCell>
        <mxCell id="-KEpG9UTArT3fklVy3_w-147" value="" style="shape=partialRectangle;collapsible=0;dropTarget=0;pointerEvents=0;fillColor=none;top=0;left=0;bottom=0;right=0;points=[[0,0.5],[1,0.5]];portConstraint=eastwest;" vertex="1" parent="-KEpG9UTArT3fklVy3_w-140">
          <mxGeometry y="90" width="231" height="30" as="geometry" />
        </mxCell>
        <mxCell id="-KEpG9UTArT3fklVy3_w-148" value="" style="shape=partialRectangle;connectable=0;fillColor=none;top=0;left=0;bottom=0;right=0;editable=1;overflow=hidden;" vertex="1" parent="-KEpG9UTArT3fklVy3_w-147">
          <mxGeometry width="30" height="30" as="geometry" />
        </mxCell>
        <mxCell id="-KEpG9UTArT3fklVy3_w-149" value="WarehouseAddress VARCHAR(50)" style="shape=partialRectangle;connectable=0;fillColor=none;top=0;left=0;bottom=0;right=0;align=left;spacingLeft=6;overflow=hidden;" vertex="1" parent="-KEpG9UTArT3fklVy3_w-147">
          <mxGeometry x="30" width="201" height="30" as="geometry" />
        </mxCell>
        <mxCell id="-KEpG9UTArT3fklVy3_w-154" style="edgeStyle=orthogonalEdgeStyle;rounded=0;orthogonalLoop=1;jettySize=auto;html=1;exitX=1;exitY=0.5;exitDx=0;exitDy=0;entryX=0;entryY=0.5;entryDx=0;entryDy=0;startArrow=ERoneToMany;startFill=0;endArrow=ERoneToMany;endFill=0;" edge="1" parent="1" source="-KEpG9UTArT3fklVy3_w-134" target="-KEpG9UTArT3fklVy3_w-144">
          <mxGeometry relative="1" as="geometry" />
        </mxCell>
      </root>
    </mxGraphModel>
  </diagram>
</mxfile>
